<?xml version="1.0" encoding="utf-8"?>
<!-- Generator: Adobe Illustrator 16.0.0, SVG Export Plug-In . SVG Version: 6.00 Build 0)  -->
<!DOCTYPE svg PUBLIC "-//W3C//DTD SVG 1.1//EN" "http://www.w3.org/Graphics/SVG/1.1/DTD/svg11.dtd">
<svg version="1.1" id="图形" xmlns="http://www.w3.org/2000/svg" xmlns:xlink="http://www.w3.org/1999/xlink" x="0px" y="0px"
	 width="1024px" height="1024px" viewBox="0 0 1024 1024" enable-background="new 0 0 1024 1024" xml:space="preserve">
<path fill="#C14054" d="M204.8,851.2C236.8,710.4,364.8,608,512,608c147.198,0,275.198,102.4,307.198,243.2h64
	C844.8,678.4,691.198,544,505.6,544S166.4,672,128,851.2H204.8z"/>
<rect x="769.063" y="703.475" transform="matrix(-0.6326 -0.7744 0.7744 -0.6326 743.9117 1894.8116)" fill="#FFFFFF" width="104.579" height="134.991"/>
<path fill="#C14054" d="M512,0C230.4,0,0,230.4,0,512c0,281.6,230.398,512,512,512c281.6,0,512-230.4,512-512
	C1024,230.4,793.6,0,512,0z M512,960C262.4,960,64,761.6,64,512C64,262.4,262.4,64,512,64c249.6,0,448,198.4,448,448
	C960,761.6,761.6,960,512,960z"/>
<rect x="68" y="841.167" fill="#FFFFFF" width="229.833" height="122.333"/>
<path fill="#C14054" d="M512,160C390.4,160,288,262.4,288,384c0,121.6,102.398,224,224,224c121.6,0,224-102.4,224-224
	C736,262.4,633.6,160,512,160z M512,544c-89.602,0-160-70.4-160-160c0-89.6,70.398-160,160-160c89.6,0,160,70.4,160,160
	C672,473.6,601.6,544,512,544z"/>
<circle fill="#C14054" cx="794.75" cy="724.274" r="30.125"/>
<circle fill="#C14054" cx="285.765" cy="935.459" r="31.625"/>
<rect x="178.667" y="820.501" fill="#FFFFFF" width="47.5" height="39.162"/>
<path fill="#C14054" d="M163.126,775.485c28.878,0,59.589,20.307,51.396,42.017c-6.855,18.165-22.518,42.016-51.396,42.016
	c-28.88,0-50.625-19.436-52.292-42.017C109.127,794.359,134.245,775.485,163.126,775.485z"/>
</svg>
