<?xml version="1.0" encoding="utf-8"?>
<!-- Generator: Adobe Illustrator 16.0.0, SVG Export Plug-In . SVG Version: 6.00 Build 0)  -->
<!DOCTYPE svg PUBLIC "-//W3C//DTD SVG 1.1//EN" "http://www.w3.org/Graphics/SVG/1.1/DTD/svg11.dtd">
<svg version="1.1" id="图形" xmlns="http://www.w3.org/2000/svg" xmlns:xlink="http://www.w3.org/1999/xlink" x="0px" y="0px"
	 width="1312.441px" height="1024px" viewBox="181.28 0 1312.441 1024" enable-background="new 181.28 0 1312.441 1024"
	 xml:space="preserve">
<path fill="#C14054" d="M211.968,85.604c-19.512-19.512-19.512-51.28,0-70.961c19.683-19.512,51.449-19.512,70.962,0l459.988,460.15
	c19.513,19.51,19.513,51.291,0,70.8l-0.864,0.856l-462.918,462.919c-19.51,19.509-51.28,19.509-70.801,0
	c-19.501-19.517-19.501-51.282,0-70.965l428.222-428.21L211.968,85.604L211.968,85.604L211.968,85.604z M932.906,85.604
	c-19.682-19.512-19.682-51.28,0-70.961c19.514-19.512,51.279-19.512,70.792,0l459.979,460.15c19.691,19.51,19.691,51.291,0,70.8
	l-0.856,0.856l-462.916,462.919c-19.34,19.509-51.12,19.509-70.802,0c-19.513-19.516-19.513-51.282,0-70.965l428.21-428.21
	L932.906,85.604L932.906,85.604L932.906,85.604z M567.431,85.604L992.02,510.193l-428.211,428.21
	c-19.682,19.683-19.682,51.452,0,70.965c19.513,19.509,51.279,19.509,70.792,0l462.746-462.922l1.037-0.861
	c19.512-19.515,19.512-51.285,0-70.792L638.223,14.643c-19.502-19.523-51.279-19.523-70.792,0
	C547.921,34.325,547.921,66.092,567.431,85.604L567.431,85.604z"/>
</svg>
