<?xml version="1.0" encoding="utf-8"?>
<!-- Generator: Adobe Illustrator 16.0.0, SVG Export Plug-In . SVG Version: 6.00 Build 0)  -->
<!DOCTYPE svg PUBLIC "-//W3C//DTD SVG 1.1//EN" "http://www.w3.org/Graphics/SVG/1.1/DTD/svg11.dtd">
<svg version="1.1" id="图形" xmlns="http://www.w3.org/2000/svg" xmlns:xlink="http://www.w3.org/1999/xlink" x="0px" y="0px"
	 width="1024px" height="1024px" viewBox="0 0 1024 1024" enable-background="new 0 0 1024 1024" xml:space="preserve">
<path fill="#C14054" d="M308.93,654.091C174.489,416.3,177.397,168.187,315.565,89.246c29.851-17.042,64.195-24.819,101.531-23.161
	c2.77-0.431,5.591-0.71,8.479-0.775c0.203,0,1.539-0.021,1.732-0.021c60.822,0,116.419,76.441,129.324,177.811
	c8.424,66.122-3.997,125.889-33.212,159.886c-15.522,18.055-35.031,27.88-56.867,28.396c-0.021,0-2.424,0.646-3.231,1.639
	c-1.121,1.379-2.436,6.29-0.689,16.137c12.615,31.151,27.576,62.071,44.479,91.974c18.4,32.533,39.02,63.688,61.328,92.622
	c0.25,0.281,0.497,0.54,0.746,0.799c3.824,4.329,6.378,4.329,7.604,4.329c4.276,0,9.49-2.671,12.615-4.717
	c14.597-19.973,38.705-30.895,68.49-30.895c40.074,0,87.817,19.495,131.004,53.493c79.231,62.396,111.771,146.287,82.81,199.291
	c-2.582,4.725-2.838,5.236-5.396,9.841c-19.187,29.421-41.843,54.988-70.884,71.578c-27.189,15.534-57.989,23.397-91.566,23.397
	h0.011C571.402,960.869,412.691,837.59,308.93,654.091z M629.242,665.121c-1.323,2.135-2.973,4.052-4.857,5.688
	c-2.179,1.897-22.021,18.443-47.594,18.443c-16.126,0-30.83-6.396-42.744-18.527c-1.316-1.121-2.534-2.391-3.621-3.793
	c-24.486-31.519-47.076-65.497-67.155-101.001c-18.401-32.555-34.644-66.272-48.283-100.206c-0.56-1.4-0.99-2.846-1.293-4.31
	c-5.15-24.927-1.626-45.157,10.472-60.089c15.857-19.584,39.447-20.316,41.635-20.316c2.541-0.065,10.288-0.237,19.422-10.859
	c19.477-22.667,27.891-70.042,21.438-120.673c-9.749-76.592-49.931-133.817-79.845-133.817c-1.187,0.044-2.35,0.237-3.491,0.474
	c-2.046,0.389-4.137,0.517-6.226,0.41c-28.449-1.702-54.476,3.858-76.538,16.439c-109.968,62.824-104.365,290.103,12.227,496.309
	c93.623,165.575,237.985,281.205,351.085,281.205c24.69,0,47.087-5.622,66.563-16.762c21.479-12.282,41.384-33.215,54.688-56.239
	c1.123-1.944,2.558-4.349,4.604-8.187c13.365-25.06-12.767-86.347-71.993-132.971c-33.966-26.736-71.281-42.7-99.841-42.7
	C648.102,653.639,635.176,655.62,629.242,665.121z"/>
<rect x="331.182" y="394.227" transform="matrix(0.9977 -0.068 0.068 0.9977 -28.5769 27.8886)" fill="#FFFFFF" width="128.667" height="79.271"/>
<rect x="397.291" y="350.348" transform="matrix(0.9593 0.2824 -0.2824 0.9593 132.2639 -114.3211)" fill="#FFFFFF" width="130.895" height="102.69"/>
<circle fill="#C14054" cx="440.098" cy="459.486" r="25.625"/>
<circle fill="#C14054" cx="515.348" cy="370.236" r="25.625"/>
</svg>
