<?xml version="1.0" encoding="utf-8"?>
<!-- Generator: Adobe Illustrator 16.0.0, SVG Export Plug-In . SVG Version: 6.00 Build 0)  -->
<!DOCTYPE svg PUBLIC "-//W3C//DTD SVG 1.1//EN" "http://www.w3.org/Graphics/SVG/1.1/DTD/svg11.dtd">
<svg version="1.1" id="图形" xmlns="http://www.w3.org/2000/svg" xmlns:xlink="http://www.w3.org/1999/xlink" x="0px" y="0px"
	 width="1024px" height="1024px" viewBox="0 0 1024 1024" enable-background="new 0 0 1024 1024" xml:space="preserve">
<path fill="#C14054" d="M930.906,194.726H534.898c-24.035,0-43.817-8.228-46.283-31.611c-0.054-1.108-0.129-2.209-0.222-3.307
	c-0.02-0.54-0.04-1.081-0.04-1.626v0.158h-0.09c-4.681-47.034-44.368-83.754-92.624-83.754H93.094
	c-51.404,0-93.091,41.668-93.091,93.086V856.33c0,51.409,41.685,93.085,93.091,93.085h837.813c51.403,0,93.09-41.676,93.09-93.085
	V297.813C1023.993,246.395,982.312,194.726,930.906,194.726z M66.549,297.812v-120.14c0-25.7,10.836-36.543,36.545-36.543h282.545
	c24.05,0,33.839,8.248,36.285,31.647c0.054,1.09,0.126,2.174,0.217,3.254c0.019,0.545,0.041,1.091,0.041,1.642h0.104
	c4.758,46.958,64.407,83.597,112.608,83.597h396.011c25.7,0,46.544,10.843,46.544,36.543H46.549l0,0H66.549z M957.449,846.33
	c0,25.704-10.845,36.542-36.545,36.542H103.094c-25.709,0-36.545-10.838-36.545-36.542V364.355h862.78
	c0.253-0.004,0.5-0.019,0.755-0.019c0.253,0,0.5,0.015,0.753,0.019h26.612V846.33z"/>
<path fill="#C14054" d="M930.084,344.336c-0.255,0-0.503,0.015-0.755,0.019h1.508C930.585,344.351,930.337,344.336,930.084,344.336z
	"/>
<rect x="66.5" y="253.5" fill="#FFFFFF" width="95.333" height="132"/>
<circle fill="#C14054" cx="163.522" cy="331.045" r="33.291"/>
<rect x="847.5" y="194.5" fill="#FFFFFF" width="177.875" height="103.313"/>
<circle fill="#C14054" cx="847.957" cy="227.542" r="33.374"/>
<path fill="#C14054" d="M958.677,363.043h-49.186v1.021c0.272-0.005,0.547-0.021,0.822-0.021c26.152,0,47.361,21.206,47.361,47.362
	c0,0.353-0.019,0.701-0.024,1.052h1.024L958.677,363.043L958.677,363.043z"/>
<path fill="#FFFFFF" d="M1025.994,295.813h-87.01v1.806c0.485-0.009,0.968-0.037,1.454-0.037c46.268,0,83.787,37.514,83.787,83.784
	c0,0.624-0.033,1.24-0.047,1.861h1.813L1025.994,295.813L1025.994,295.813z"/>
</svg>
