<?xml version="1.0" encoding="utf-8"?>
<!-- Generator: Adobe Illustrator 16.0.0, SVG Export Plug-In . SVG Version: 6.00 Build 0)  -->
<!DOCTYPE svg PUBLIC "-//W3C//DTD SVG 1.1//EN" "http://www.w3.org/Graphics/SVG/1.1/DTD/svg11.dtd">
<svg version="1.1" id="图形" xmlns="http://www.w3.org/2000/svg" xmlns:xlink="http://www.w3.org/1999/xlink" x="0px" y="0px"
	 width="1024px" height="1024px" viewBox="0 0 1024 1024" enable-background="new 0 0 1024 1024" xml:space="preserve">
<path fill="#C14054" d="M23.607,570.787l362.696-367.719c0,0,31.146-28.132,59.276,0c28.133,28.131,273.278,275.287,273.278,275.287
	s32.15,70.375-54.255,45.26L437.339,285.689c0,0-30.896-10.283-69.073,28.9C330.088,353.772,88.913,598.887,88.913,598.887
	l-1.963,347.61c0,0,331.503,5.776,341.551,0c10.047-5.777,479.24-492.302,479.24-492.302s32.151-44.615,8.54-68.225
	c-23.61-23.61-284.832-283.325-284.832-283.325s-27.126-17.08-44.206,0c-17.081,17.08-54.254,57.771-54.254,57.771
	s-17.08,16.577-34.159,0c-17.081-16.578-37.097-24.16-14.553-46.766s80.534-75.384,80.534-75.384s38.224-49.529,99.174,5.4
	c60.949,54.929,308.771,316.135,308.771,316.135s60.91,58.932-7.408,133.955c-68.319,75.022-434.031,442.741-434.031,442.741l0,0
	c0,0-62.291,71.334-100.806,72.998H69.156c0,0-44.206-5.354-45.549-53.579C22.265,907.691,23.607,570.787,23.607,570.787z"/>
</svg>
