<?xml version="1.0" encoding="utf-8"?>
<!-- Generator: Adobe Illustrator 16.0.0, SVG Export Plug-In . SVG Version: 6.00 Build 0)  -->
<!DOCTYPE svg PUBLIC "-//W3C//DTD SVG 1.1//EN" "http://www.w3.org/Graphics/SVG/1.1/DTD/svg11.dtd">
<svg version="1.1" id="图形" xmlns="http://www.w3.org/2000/svg" xmlns:xlink="http://www.w3.org/1999/xlink" x="0px" y="0px"
	 width="1024px" height="1024px" viewBox="0 0 1024 1024" enable-background="new 0 0 1024 1024" xml:space="preserve">
<path fill="#C14054" d="M15.627,346.659L493.96,638.688c4.292,2.616,9.131,3.926,13.971,3.926c4.841,0,9.68-1.31,13.97-3.926
	l486.472-297c7.955-4.865,12.818-13.526,12.818-22.867c0-9.34-4.864-18.001-12.818-22.868L530.038,3.924
	c-8.581-5.232-19.36-5.232-27.943,0L15.627,300.927c-7.955,4.866-12.819,13.526-12.819,22.867
	C2.806,333.133,7.673,341.793,15.627,346.659z M516.067,68.187l416.928,250.634L507.931,574.426L91.008,323.791L516.067,68.187z"/>
<path fill="#C14054" d="M980.431,473.491l-472.5,288.472L43.567,478.461c-12.637-7.72-29.146-3.742-36.836,8.896
	c-7.72,12.636-3.716,39.117,8.896,46.835l478.333,292.03c4.292,2.619,9.131,3.927,13.971,3.927c4.841,0,9.68-1.308,13.97-3.927
	l486.47-297c12.612-7.717,16.615-34.2,8.896-46.836C1009.552,469.748,993.067,465.746,980.431,473.491z"/>
<path fill="#C14054" d="M980.431,661.023l-472.5,288.473l-464.364-283.5c-12.637-7.717-29.146-3.715-36.836,8.896
	c-7.72,12.636-3.716,39.117,8.896,46.838l478.333,292.029c4.292,2.617,9.131,3.924,13.971,3.924c4.841,0,9.68-1.307,13.97-3.924
	l486.472-297.002c12.611-7.719,16.614-34.199,8.896-46.838C1009.552,657.283,993.067,653.281,980.431,661.023z"/>
</svg>
