<?xml version="1.0" encoding="utf-8"?>
<!-- Generator: Adobe Illustrator 16.0.0, SVG Export Plug-In . SVG Version: 6.00 Build 0)  -->
<!DOCTYPE svg PUBLIC "-//W3C//DTD SVG 1.1//EN" "http://www.w3.org/Graphics/SVG/1.1/DTD/svg11.dtd">
<svg version="1.1" id="图形" xmlns="http://www.w3.org/2000/svg" xmlns:xlink="http://www.w3.org/1999/xlink" x="0px" y="0px"
	 width="1025px" height="1024px" viewBox="0 0 1025 1024" enable-background="new 0 0 1025 1024" xml:space="preserve">
<path fill="#C14054" d="M461.015,785.533c-12.298,0-24.599-4.697-33.979-14.091L229.429,573.863c-18.75-18.765-18.75-49.17,0-67.936
	c18.745-18.764,49.17-18.764,67.925,0l163.661,163.673l418.059-418.106c18.765-18.764,49.18-18.764,67.943,0
	c18.73,18.741,18.73,49.156,0,67.925L494.956,771.456C485.586,780.836,473.277,785.533,461.015,785.533L461.015,785.533z
	 M512.003,1024C229.688,1024,0,794.317,0,512.005C0,229.688,229.688,0,512.003,0C612.71,0,710.197,29.224,793.878,84.511
	c16.855,11.134,21.485,33.819,10.366,50.674c-11.133,16.846-33.818,21.5-50.674,10.366C681.871,98.179,598.331,73.14,512.003,73.14
	c-241.998,0-438.862,196.865-438.862,438.863c0,241.992,196.865,438.858,438.862,438.858c241.992,0,438.857-196.866,438.857-438.858
	c0-15.273-0.776-30.651-2.339-45.714c-2.08-20.098,12.529-38.062,32.618-40.131c20.068-2.085,38.062,12.528,40.131,32.612
	c1.816,17.549,2.73,35.449,2.73,53.232C1024,794.317,794.317,1024,512.003,1024L512.003,1024z"/>
</svg>
